<svg
            xmlns="http://www.w3.org/2000/svg"
            version="1.1"
            xmlns:xlink="http://www.w3.org/1999/xlink"
            width="512"
            height="512"
            x="0"
            y="0"
            viewBox="0 0 300 300"
            style="enable-background: new 0 0 512 512"
            xml:space="preserve"
            class=""
          >
            <g>
              <path
                d="M268.672 77.297a3.998 3.998 0 0 0-3.289-4.601L165.254 56.055c-1.047-.178-2.121.074-2.984.691s-1.445 1.551-1.617 2.598l-7.172 43.168-29.148-37.883a3.998 3.998 0 0 0-5.609-.73l-80.445 61.893a4 4 0 0 0-.734 5.609l49.73 64.641v54.016c0 7.688 6.254 13.943 13.945 13.943h140.109c7.691 0 13.945-6.256 13.945-13.943v-92.14zM239.085 176c-1.01-6.228-6.384-11.01-12.89-11.01s-11.88 4.782-12.89 11.01h-7.834c-7.551-12.053-20.913-20.111-36.154-20.111-15.243 0-28.607 8.058-36.158 20.111H95.273v-30.057a5.951 5.951 0 0 1 5.945-5.943h140.109a5.951 5.951 0 0 1 5.945 5.943V176zm-7.788 2.092c0 2.812-2.289 5.1-5.102 5.1s-5.102-2.287-5.102-5.1 2.289-5.102 5.102-5.102 5.102 2.289 5.102 5.102zm-61.981-14.203c19.121 0 34.676 15.557 34.676 34.68s-15.555 34.68-34.676 34.68-34.68-15.557-34.68-34.68 15.559-34.68 34.68-34.68zM238.291 132h-27.425l-13.222-16.572a19.639 19.639 0 0 0-15.43-7.428h-8.357l4.725-28.441 66.586 11.066zm-71.92-16h15.844a11.68 11.68 0 0 1 9.176 4.418L200.629 132h-51.2l7.164-10.764a11.725 11.725 0 0 1 9.778-5.236zm-26.549 16h-4.549v-8c0-2.209-1.789-4-4-4h-24c-2.211 0-4 1.791-4 4v8h-2.055c-7.691 0-13.945 6.256-13.945 13.943v15.654l-22.719-29.529L118.05 90.91l26.336 34.232zm-12.549 0h-16v-4h16zm40.614-67.398 92.238 15.33-9.285 55.872a13.918 13.918 0 0 0-4.596-2.864l7.471-44.948a3.998 3.998 0 0 0-3.289-4.601l-74.477-12.379c-1.047-.18-2.121.074-2.984.691s-1.445 1.551-1.617 2.598l-5.605 33.738a19.678 19.678 0 0 0-5.219.881zM46.324 129.691l74.105-57.014 31.257 40.627-.254 1.53a19.887 19.887 0 0 0-1.495 1.968l-.867 1.303-27.117-35.245a4 4 0 0 0-5.609-.73l-59.836 46.037a4 4 0 0 0-.734 5.609l31.316 40.705c.051.065.13.087.184.149v8.285zM241.328 256H101.219a5.951 5.951 0 0 1-5.945-5.943V184h33.979c-1.662 4.554-2.615 9.446-2.615 14.568 0 23.533 19.145 42.68 42.68 42.68 23.531 0 42.676-19.146 42.676-42.68 0-5.122-.954-10.014-2.615-14.568h5.191c2.17 4.247 6.541 7.191 11.627 7.191s9.458-2.945 11.627-7.191h9.451v66.057a5.954 5.954 0 0 1-5.947 5.943zM55.273 56c2.211 0 4-1.791 4-4V40c0-2.209-1.789-4-4-4s-4 1.791-4 4v12c0 2.209 1.789 4 4 4zM55.273 64c-2.211 0-4 1.791-4 4v12c0 2.209 1.789 4 4 4s4-1.791 4-4V68c0-2.209-1.789-4-4-4zM51.273 60c0-2.209-1.789-4-4-4h-12c-2.211 0-4 1.791-4 4s1.789 4 4 4h12c2.211 0 4-1.791 4-4zM63.273 64h12c2.211 0 4-1.791 4-4s-1.789-4-4-4h-12c-2.211 0-4 1.791-4 4s1.789 4 4 4zM53.273 204c-7.719 0-14 6.281-14 14s6.281 14 14 14 14-6.281 14-14-6.281-14-14-14zm0 20c-3.309 0-6-2.691-6-6s2.691-6 6-6 6 2.691 6 6-2.691 6-6 6z"
                fill="#ffffff"
                opacity="1"
                data-original="#000000"
                class=""
              ></path>
              <circle
                cx="115.273"
                cy="48"
                r="4"
                fill="#ffffff"
                opacity="1"
                data-original="#000000"
                class=""
              ></circle>
              <circle
                cx="67.273"
                cy="256"
                r="4"
                fill="#ffffff"
                opacity="1"
                data-original="#000000"
                class=""
              ></circle>
              <circle
                cx="251.273"
                cy="44"
                r="4"
                fill="#ffffff"
                opacity="1"
                data-original="#000000"
                class=""
              ></circle>
              <path
                d="M169.316 225.906c15.074 0 27.336-12.264 27.336-27.338s-12.262-27.338-27.336-27.338-27.34 12.264-27.34 27.338 12.266 27.338 27.34 27.338zm0-46.676c10.66 0 19.336 8.676 19.336 19.338s-8.676 19.338-19.336 19.338c-10.664 0-19.34-8.676-19.34-19.338s8.676-19.338 19.34-19.338z"
                fill="#ffffff"
                opacity="1"
                data-original="#000000"
                class=""
              ></path>
            </g>
          </svg>